HIERARCHY
ROOT Hip
{
	OFFSET	0.0000	0.0000	0.0000
	CHANNELS 6 Xposition Yposition Zposition Xrotation Yrotation Zrotation
	JOINT LowerSpine
	{
		OFFSET	0.0000	10.0322	-5.4289
		CHANNELS 3 Xrotation Yrotation Zrotation
		JOINT MiddleSpine
		{
			OFFSET	0.0000	9.1552	0.4782
			CHANNELS 3 Xrotation Yrotation Zrotation
			JOINT Chest
			{
				OFFSET	0.0000	11.3285	-2.5216
				CHANNELS 3 Xrotation Yrotation Zrotation
				JOINT Neck
				{
					OFFSET	0.0000	25.5283	-0.5309
					CHANNELS 3 Xrotation Yrotation Zrotation
					JOINT Head
					{
						OFFSET	0.0000	14.4161	3.9212
						CHANNELS 3 Xrotation Yrotation Zrotation
						End Site
						{
							OFFSET	0.0001	20.1431	0.6013
						}
					}
				}
				JOINT LClavicle
				{
					OFFSET	2.5773	24.6361	8.4405
					CHANNELS 3 Xrotation Yrotation Zrotation
					JOINT LShoulder
					{
						OFFSET	15.0569	3.5337	-5.7178
						CHANNELS 3 Xrotation Yrotation Zrotation
						JOINT LForearm
						{
							OFFSET	31.9839	-0.1136	-0.2771
							CHANNELS 3 Xrotation Yrotation Zrotation
							JOINT LHand
							{
								OFFSET	26.6813	0.0774	-0.1598
								CHANNELS 3 Xrotation Yrotation Zrotation
								JOINT LFinger1
								{
									OFFSET	10.3409	0.9043	2.8721
									CHANNELS 3 Xrotation Yrotation Zrotation
									JOINT LFinger11
									{
										OFFSET	3.8680	-0.9432	0.6816
										CHANNELS 3 Xrotation Yrotation Zrotation
										JOINT LFinger12
										{
											OFFSET	2.6406	-0.6442	0.4655
											CHANNELS 3 Xrotation Yrotation Zrotation
											End Site
											{
												OFFSET	1.8790	-0.5609	0.3048
											}
										}
									}
								}
								JOINT LFinger2
								{
									OFFSET	10.4952	1.0444	0.2501
									CHANNELS 3 Xrotation Yrotation Zrotation
									JOINT LFinger21
									{
										OFFSET	4.7826	0.0133	-0.0282
										CHANNELS 3 Xrotation Yrotation Zrotation
										JOINT LFinger22
										{
											OFFSET	2.6509	0.0081	-0.0161
											CHANNELS 3 Xrotation Yrotation Zrotation
											End Site
											{
												OFFSET	2.3811	-0.1681	0.0032
											}
										}
									}
								}
								JOINT LFinger3
								{
									OFFSET	9.9464	0.6969	-2.3531
									CHANNELS 3 Xrotation Yrotation Zrotation
									JOINT LFinger31
									{
										OFFSET	4.3397	-0.2197	-0.2717
										CHANNELS 3 Xrotation Yrotation Zrotation
										JOINT LFinger32
										{
											OFFSET	2.4729	-0.1244	-0.1554
											CHANNELS 3 Xrotation Yrotation Zrotation
											End Site
											{
												OFFSET	2.1865	-0.2688	-0.1034
											}
										}
									}
								}
								JOINT LFinger4
								{
									OFFSET	9.2298	-0.7015	-4.0639
									CHANNELS 3 Xrotation Yrotation Zrotation
									JOINT LFinger41
									{
										OFFSET	2.6693	-0.5567	-0.7368
										CHANNELS 3 Xrotation Yrotation Zrotation
										JOINT LFinger42
										{
											OFFSET	1.9574	-0.4077	-0.5407
											CHANNELS 3 Xrotation Yrotation Zrotation
											End Site
											{
												OFFSET	1.7374	-0.4774	-0.3986
											}
										}
									}
								}
								JOINT LFinger0
								{
									OFFSET	2.1391	-1.6191	1.6216
									CHANNELS 3 Xrotation Yrotation Zrotation
									JOINT LFinger01
									{
										OFFSET	3.9827	-1.3081	3.0028
										CHANNELS 3 Xrotation Yrotation Zrotation
										JOINT LFinger02
										{
											OFFSET	2.6226	-0.9384	1.8895
											CHANNELS 3 Xrotation Yrotation Zrotation
											End Site
											{
												OFFSET	1.9286	-0.6639	1.3206
											}
										}
									}
								}
							}
						}
					}
				}
				JOINT RClavicle
				{
					OFFSET	-2.5773	24.6361	8.4405
					CHANNELS 3 Xrotation Yrotation Zrotation
					JOINT RShoulder
					{
						OFFSET	-15.0596	3.5343	-5.7188
						CHANNELS 3 Xrotation Yrotation Zrotation
						JOINT RForearm
						{
							OFFSET	-31.9839	-0.1136	-0.2771
							CHANNELS 3 Xrotation Yrotation Zrotation
							JOINT RHand
							{
								OFFSET	-26.6813	0.0774	-0.1598
								CHANNELS 3 Xrotation Yrotation Zrotation
								JOINT RFinger1
								{
									OFFSET	-10.3409	0.9043	2.8721
									CHANNELS 3 Xrotation Yrotation Zrotation
									JOINT RFinger11
									{
										OFFSET	-3.8680	-0.9432	0.6816
										CHANNELS 3 Xrotation Yrotation Zrotation
										JOINT RFinger12
										{
											OFFSET	-2.6406	-0.6442	0.4655
											CHANNELS 3 Xrotation Yrotation Zrotation
											End Site
											{
												OFFSET	-1.8790	-0.5609	0.3048
											}
										}
									}
								}
								JOINT RFinger2
								{
									OFFSET	-10.4952	1.0444	0.2501
									CHANNELS 3 Xrotation Yrotation Zrotation
									JOINT RFinger21
									{
										OFFSET	-4.7826	0.0133	-0.0282
										CHANNELS 3 Xrotation Yrotation Zrotation
										JOINT RFinger22
										{
											OFFSET	-2.6509	0.0081	-0.0161
											CHANNELS 3 Xrotation Yrotation Zrotation
											End Site
											{
												OFFSET	-2.3811	-0.1681	0.0032
											}
										}
									}
								}
								JOINT RFinger3
								{
									OFFSET	-9.9464	0.6969	-2.3531
									CHANNELS 3 Xrotation Yrotation Zrotation
									JOINT RFinger31
									{
										OFFSET	-4.3397	-0.2197	-0.2717
										CHANNELS 3 Xrotation Yrotation Zrotation
										JOINT RFinger32
										{
											OFFSET	-2.4729	-0.1244	-0.1554
											CHANNELS 3 Xrotation Yrotation Zrotation
											End Site
											{
												OFFSET	-2.1865	-0.2688	-0.1034
											}
										}
									}
								}
								JOINT RFinger4
								{
									OFFSET	-9.2298	-0.7015	-4.0639
									CHANNELS 3 Xrotation Yrotation Zrotation
									JOINT RFinger41
									{
										OFFSET	-2.6693	-0.5567	-0.7368
										CHANNELS 3 Xrotation Yrotation Zrotation
										JOINT RFinger42
										{
											OFFSET	-1.9574	-0.4077	-0.5407
											CHANNELS 3 Xrotation Yrotation Zrotation
											End Site
											{
												OFFSET	-1.7374	-0.4774	-0.3986
											}
										}
									}
								}
								JOINT RFinger0
								{
									OFFSET	-2.1391	-1.6191	1.6216
									CHANNELS 3 Xrotation Yrotation Zrotation
									JOINT RFinger01
									{
										OFFSET	-3.9827	-1.3081	3.0028
										CHANNELS 3 Xrotation Yrotation Zrotation
										JOINT RFinger02
										{
											OFFSET	-2.6226	-0.9384	1.8895
											CHANNELS 3 Xrotation Yrotation Zrotation
											End Site
											{
												OFFSET	-1.9286	-0.6639	1.3206
											}
										}
									}
								}
							}
						}
					}
				}
			}
		}
	}
	JOINT RThigh
	{
		OFFSET	-10.7320	4.5349	-0.8846
		CHANNELS 3 Xrotation Yrotation Zrotation
		JOINT RShin
		{
			OFFSET	-0.8587	-46.6794	0.0000
			CHANNELS 3 Xrotation Yrotation Zrotation
			JOINT RFoot
			{
				OFFSET	0.0000	-45.8363	0.0000
				CHANNELS 3 Xrotation Yrotation Zrotation
				JOINT RToe
				{
					OFFSET	0.0000	-5.0378	10.5347
					CHANNELS 3 Xrotation Yrotation Zrotation
					End Site
					{
						OFFSET	0.0000	0.0000	7.0673
					}
				}
			}
		}
	}
	JOINT LThigh
	{
		OFFSET	10.7319	4.5352	-0.8846
		CHANNELS 3 Xrotation Yrotation Zrotation
		JOINT LShin
		{
			OFFSET	0.8588	-46.6797	0.0000
			CHANNELS 3 Xrotation Yrotation Zrotation
			JOINT LFoot
			{
				OFFSET	0.0000	-45.8363	0.0000
				CHANNELS 3 Xrotation Yrotation Zrotation
				JOINT LToe
				{
					OFFSET	0.0000	-5.0378	10.5348
					CHANNELS 3 Xrotation Yrotation Zrotation
					End Site
					{
						OFFSET	0.0000	0.0000	7.0673
					}
				}
			}
		}
	}
}
MOTION
Frames:	6
Frame Time: 0.0333333000
	-0.1141	97.5729	2.8177	-7.197728	-0.000004	-4.431445	0.000000	0.000000	0.000000	3.293661	-1.052777	1.263480	11.057450	-3.181921	4.436786	0.000000	0.000000	0.000000	0.000000	0.000000	0.000000	0.000000	0.000000	-15.212310	12.120180	-18.197480	-59.604570	-4.949145	-36.416100	-0.014279	0.000000	0.000000	0.000000	0.000000	0.000000	0.000000	0.000000	0.000000	0.000000	0.000000	0.000000	0.000000	0.000000	0.000000	0.000000	0.000000	0.000000	0.000000	0.000000	0.000000	0.000000	0.000000	0.000000	0.000000	0.000000	0.000000	0.000000	0.000000	0.000000	0.000000	0.000000	0.000000	0.000000	0.000000	0.000000	0.000000	0.000000	0.000000	0.000000	0.000000	0.000000	0.000000	0.000000	0.000000	0.000000	0.000000	0.000000	0.000000	0.000000	0.000000	14.700100	9.525118	20.769130	56.703120	-4.981142	29.754280	-0.002257	0.000000	0.000000	0.000000	0.000000	0.000000	0.000000	0.000000	0.000000	0.000000	0.000000	0.000000	0.000000	0.000000	0.000000	0.000000	0.000000	0.000000	0.000000	0.000000	0.000000	0.000000	0.000000	0.000000	0.000000	0.000000	0.000000	0.000000	0.000000	0.000000	0.000000	0.000000	0.000000	0.000000	0.000000	0.000000	0.000000	0.000000	0.000000	0.000000	0.000000	0.000000	0.000000	0.000000	0.000000	0.000000	0.000000	0.000000	0.000000	4.668985	-2.159258	3.166244	12.288820	-1.982320	0.498280	-0.540985	-0.256847	-0.124319	0.000000	0.000000	0.000000	0.901819	0.917651	6.240366	19.033410	0.892652	-0.342943	-1.089197	-0.427277	-0.209343	0.000000	0.000000	0.000000
	-0.1007	97.5756	2.7722	-7.224666	0.062065	-4.429265	0.000000	0.000000	0.000000	3.302197	-1.067715	1.261077	11.099580	-3.256052	4.431442	0.000000	0.000000	0.000000	0.000000	0.000000	0.000000	0.000000	0.000000	-15.216140	12.108750	-18.105320	-59.668000	-5.027190	-36.423550	-0.013734	0.000000	0.000000	0.000000	0.000000	0.000000	0.000000	0.000000	0.000000	0.000000	0.000000	0.000000	0.000000	0.000000	0.000000	0.000000	0.000000	0.000000	0.000000	0.000000	0.000000	0.000000	0.000000	0.000000	0.000000	0.000000	0.000000	0.000000	0.000000	0.000000	0.000000	0.000000	0.000000	0.000000	0.000000	0.000000	0.000000	0.000000	0.000000	0.000000	0.000000	0.000000	0.000000	0.000000	0.000000	0.000000	0.000000	0.000000	0.000000	0.000000	0.000000	14.699470	8.619032	19.716330	56.928000	-4.880626	29.474900	0.756885	0.000000	0.000000	0.000000	0.000000	0.000000	0.000000	0.000000	0.000000	0.000000	0.000000	0.000000	0.000000	0.000000	0.000000	0.000000	0.000000	0.000000	0.000000	0.000000	0.000000	0.000000	0.000000	0.000000	0.000000	0.000000	0.000000	0.000000	0.000000	0.000000	0.000000	0.000000	0.000000	0.000000	0.000000	0.000000	0.000000	0.000000	0.000000	0.000000	0.000000	0.000000	0.000000	0.000000	0.000000	0.000000	0.000000	0.000000	0.000000	4.702474	-2.208893	3.168734	12.284000	-2.017470	0.488232	-0.551031	-0.276839	-0.134031	0.000000	0.000000	0.000000	0.910762	0.940232	6.273015	19.002710	0.896164	-0.378956	-1.086989	-0.426506	-0.208951	0.000000	0.000000	0.000000
	-0.0836	97.5773	2.7249	-7.250507	0.134993	-4.423578	0.000000	0.000000	0.000000	3.314125	-1.087141	1.257708	11.143650	-3.325134	4.425231	0.000000	0.000000	0.000000	0.000000	0.000000	0.000000	0.000000	0.000000	-15.217470	12.099400	-17.967320	-59.742730	-5.135323	-36.499930	-0.012867	0.000000	0.000000	0.000000	0.000000	0.000000	0.000000	0.000000	0.000000	0.000000	0.000000	0.000000	0.000000	0.000000	0.000000	0.000000	0.000000	0.000000	0.000000	0.000000	0.000000	0.000000	0.000000	0.000000	0.000000	0.000000	0.000000	0.000000	0.000000	0.000000	0.000000	0.000000	0.000000	0.000000	0.000000	0.000000	0.000000	0.000000	0.000000	0.000000	0.000000	0.000000	0.000000	0.000000	0.000000	0.000000	0.000000	0.000000	0.000000	0.000000	0.000000	14.697320	5.129556	14.726870	57.853110	-4.888029	28.785210	3.774470	0.000000	0.000000	0.000000	0.000000	0.000000	0.000000	0.000000	0.000000	0.000000	0.000000	0.000000	0.000000	0.000000	0.000000	0.000000	0.000000	0.000000	0.000000	0.000000	0.000000	0.000000	0.000000	0.000000	0.000000	0.000000	0.000000	0.000000	0.000000	0.000000	0.000000	0.000000	0.000000	0.000000	0.000000	0.000000	0.000000	0.000000	0.000000	0.000000	0.000000	0.000000	0.000000	0.000000	0.000000	0.000000	0.000000	0.000000	0.000000	4.730770	-2.246542	3.168904	12.302190	-2.085157	0.487438	-0.572782	-0.296284	-0.143506	0.000000	0.000000	0.000000	0.892794	0.948298	6.258449	18.991000	0.908940	-0.359290	-1.092570	-0.478891	-0.234597	0.000000	0.000000	0.000000
	-0.0639	97.5761	2.6793	-7.275522	0.217495	-4.422240	0.000000	0.000000	0.000000	3.327223	-1.106301	1.253969	11.189070	-3.388393	4.418113	0.000000	0.000000	0.000000	0.000000	0.000000	0.000000	0.000000	0.000000	-15.221710	12.078540	-17.748290	-59.861560	-5.313442	-36.643170	-0.011956	0.000000	0.000000	0.000000	0.000000	0.000000	0.000000	0.000000	0.000000	0.000000	0.000000	0.000000	0.000000	0.000000	0.000000	0.000000	0.000000	0.000000	0.000000	0.000000	0.000000	0.000000	0.000000	0.000000	0.000000	0.000000	0.000000	0.000000	0.000000	0.000000	0.000000	0.000000	0.000000	0.000000	0.000000	0.000000	0.000000	0.000000	0.000000	0.000000	0.000000	0.000000	0.000000	0.000000	0.000000	0.000000	0.000000	0.000000	0.000000	0.000000	0.000000	14.694560	0.155920	6.991727	58.684760	-4.949374	27.835690	8.280701	0.000000	0.000000	0.000000	0.000000	0.000000	0.000000	0.000000	0.000000	0.000000	0.000000	0.000000	0.000000	0.000000	0.000000	0.000000	0.000000	0.000000	0.000000	0.000000	0.000000	0.000000	0.000000	0.000000	0.000000	0.000000	0.000000	0.000000	0.000000	0.000000	0.000000	0.000000	0.000000	0.000000	0.000000	0.000000	0.000000	0.000000	0.000000	0.000000	0.000000	0.000000	0.000000	0.000000	0.000000	0.000000	0.000000	0.000000	0.000000	4.782784	-2.318392	3.167491	12.274920	-2.112020	0.484910	-0.602560	-0.308013	-0.149279	0.000000	0.000000	0.000000	0.866902	0.956642	6.190018	18.999250	0.943237	-0.204304	-1.141243	-0.630511	-0.309227	0.000000	0.000000	0.000000
	-0.0516	97.5787	2.6402	-7.310765	0.291453	-4.434588	0.000000	0.000000	0.000000	3.339775	-1.122726	1.250330	11.235300	-3.445314	4.410054	0.000000	0.000000	0.000000	0.000000	0.000000	0.000000	0.000000	0.000000	-15.223550	12.025620	-17.500090	-60.023650	-5.551595	-36.720560	-0.010884	0.000000	0.000000	0.000000	0.000000	0.000000	0.000000	0.000000	0.000000	0.000000	0.000000	0.000000	0.000000	0.000000	0.000000	0.000000	0.000000	0.000000	0.000000	0.000000	0.000000	0.000000	0.000000	0.000000	0.000000	0.000000	0.000000	0.000000	0.000000	0.000000	0.000000	0.000000	0.000000	0.000000	0.000000	0.000000	0.000000	0.000000	0.000000	0.000000	0.000000	0.000000	0.000000	0.000000	0.000000	0.000000	0.000000	0.000000	0.000000	0.000000	0.000000	14.693280	-3.092763	1.820367	58.919510	-4.936016	27.163370	11.145220	0.000000	0.000000	0.000000	0.000000	0.000000	0.000000	0.000000	0.000000	0.000000	0.000000	0.000000	0.000000	0.000000	0.000000	0.000000	0.000000	0.000000	0.000000	0.000000	0.000000	0.000000	0.000000	0.000000	0.000000	0.000000	0.000000	0.000000	0.000000	0.000000	0.000000	0.000000	0.000000	0.000000	0.000000	0.000000	0.000000	0.000000	0.000000	0.000000	0.000000	0.000000	0.000000	0.000000	0.000000	0.000000	0.000000	0.000000	0.000000	4.832283	-2.343340	3.160474	12.245990	-2.135624	0.528241	-0.575674	-0.271666	-0.131634	0.000000	0.000000	0.000000	0.861480	0.966027	6.163935	18.993110	0.966629	-0.106543	-1.173393	-0.726638	-0.356584	0.000000	0.000000	0.000000
	-0.0476	97.5959	2.6064	-7.363964	0.343735	-4.453439	0.000000	0.000000	0.000000	3.349926	-1.134665	1.247323	11.281830	-3.495544	4.401044	0.000000	0.000000	0.000000	0.000000	0.000000	0.000000	0.000000	0.000000	-15.225110	11.961250	-17.345690	-60.152000	-5.737170	-36.634830	-0.009372	0.000000	0.000000	0.000000	0.000000	0.000000	0.000000	0.000000	0.000000	0.000000	0.000000	0.000000	0.000000	0.000000	0.000000	0.000000	0.000000	0.000000	0.000000	0.000000	0.000000	0.000000	0.000000	0.000000	0.000000	0.000000	0.000000	0.000000	0.000000	0.000000	0.000000	0.000000	0.000000	0.000000	0.000000	0.000000	0.000000	0.000000	0.000000	0.000000	0.000000	0.000000	0.000000	0.000000	0.000000	0.000000	0.000000	0.000000	0.000000	0.000000	0.000000	14.691460	-3.961529	0.632822	59.075040	-4.813820	26.868200	11.456680	0.000000	0.000000	0.000000	0.000000	0.000000	0.000000	0.000000	0.000000	0.000000	0.000000	0.000000	0.000000	0.000000	0.000000	0.000000	0.000000	0.000000	0.000000	0.000000	0.000000	0.000000	0.000000	0.000000	0.000000	0.000000	0.000000	0.000000	0.000000	0.000000	0.000000	0.000000	0.000000	0.000000	0.000000	0.000000	0.000000	0.000000	0.000000	0.000000	0.000000	0.000000	0.000000	0.000000	0.000000	0.000000	0.000000	0.000000	0.000000	4.889383	-2.369026	3.139286	12.225260	-2.149675	0.620964	-0.424423	-0.213818	-0.103061	0.000000	0.000000	0.000000	0.904043	0.978100	6.256557	18.921710	0.949131	-0.247902	-1.077087	-0.647071	-0.316796	0.000000	0.000000	0.000000
